HIERARCHY
ROOT joint_0
{
	OFFSET 0.000000 0.000000 0.000000
	CHANNELS 6 Xposition Yposition Zposition Zrotation Yrotation Xrotation 
	JOINT joint_1
	{
		OFFSET 10.084412 4.114712 95.061035
		CHANNELS 3 Zrotation Yrotation Xrotation
		JOINT joint_2
		{
			OFFSET -1.615463 4.243484 87.329956
			CHANNELS 3 Zrotation Yrotation Xrotation
			JOINT joint_3
			{
				OFFSET -3.579636 4.638191 87.154053
				CHANNELS 3 Zrotation Yrotation Xrotation
				JOINT joint_4
				{
					OFFSET 5.443451 7.217075 123.562988
					CHANNELS 3 Zrotation Yrotation Xrotation
					JOINT joint_5
					{
						OFFSET 21.688065 15.141808 90.458008
						CHANNELS 3 Zrotation Yrotation Xrotation
						End Site
						{
							OFFSET 0.000000 0.000000 0.000000
						}
					}
				}
				JOINT joint_6
				{
					OFFSET 3.611374 -22.863556 70.791992
					CHANNELS 3 Zrotation Yrotation Xrotation
					JOINT joint_7
					{
						OFFSET 3.493607 -153.029137 -12.665039
						CHANNELS 3 Zrotation Yrotation Xrotation
						JOINT joint_8
						{
							OFFSET -14.929443 -32.628616 -254.032959
							CHANNELS 3 Zrotation Yrotation Xrotation
							JOINT joint_9
							{
								OFFSET 11.589401 -3.548126 -242.255005
								CHANNELS 3 Zrotation Yrotation Xrotation
								End Site
								{
									OFFSET 0.000000 0.000000 0.000000
								}
							}
						}
					}
				}
				JOINT joint_10
				{
					OFFSET 2.651962 30.943008 67.690918
					CHANNELS 3 Zrotation Yrotation Xrotation
					JOINT joint_11
					{
						OFFSET -6.172562 150.392159 -30.576904
						CHANNELS 3 Zrotation Yrotation Xrotation
						JOINT joint_12
						{
							OFFSET 15.363358 20.741959 -255.254028
							CHANNELS 3 Zrotation Yrotation Xrotation
							JOINT joint_13
							{
								OFFSET 23.282578 -11.086121 -241.182983
								CHANNELS 3 Zrotation Yrotation Xrotation
								End Site
								{
									OFFSET 0.000000 0.000000 0.000000
								}
							}
						}
					}
				}
			}
		}
	}
	JOINT joint_14
	{
		OFFSET -7.080551 -92.910816 -106.291992
		CHANNELS 3 Zrotation Yrotation Xrotation
		JOINT joint_15
		{
			OFFSET -38.248322 -6.001282 -411.906006
			CHANNELS 3 Zrotation Yrotation Xrotation
			JOINT joint_16
			{
				OFFSET -11.189407 -11.244659 -448.150986
				CHANNELS 3 Zrotation Yrotation Xrotation
				JOINT joint_17
				{
					OFFSET 169.870491 -24.631378 -80.352999
					CHANNELS 3 Zrotation Yrotation Xrotation
					End Site
					{
						OFFSET 0.000000 0.000000 0.000000
					}
				}
			}
		}
	}
	JOINT joint_18
	{
		OFFSET -2.796600 85.817772 -112.273987
		CHANNELS 3 Zrotation Yrotation Xrotation
		JOINT joint_19
		{
			OFFSET -44.395859 -8.174402 -411.255005
			CHANNELS 3 Zrotation Yrotation Xrotation
			JOINT joint_20
			{
				OFFSET -25.617508 -5.555587 -447.666992
				CHANNELS 3 Zrotation Yrotation Xrotation
				JOINT joint_21
				{
					OFFSET 163.870811 53.215703 -78.867000
					CHANNELS 3 Zrotation Yrotation Xrotation
					End Site
					{
						OFFSET 0.000000 0.000000 0.000000
					}
				}
			}
		}
	}
}
MOTION
Frames: 16
Frame Time: 0.016667
449.596527 -105.415512 1065.515991 2.348093 -2.532029 1.909732 -0.038815 -1.895423 1.508672 -0.175552 0.360929 -0.335987 -0.110402 -0.377789 0.222544 -2.254444 7.697999 3.841074 0.000000 0.000000 0.000000 -3.132624 -1.149541 1.173646 0.701686 -1.633775 -6.050646 0.036632 0.389834 0.835595 0.000000 0.000000 0.000000 -0.196902 0.164149 -2.399128 0.699708 0.486996 1.244150 -0.093864 -5.753987 -3.515768 0.000000 0.000000 0.000000 -1.102580 -0.073546 0.322258 -1.227330 3.331152 1.124639 -0.989778 -3.844727 -1.024322 0.000000 0.000000 0.000000 -1.985388 -1.257081 -1.195804 -2.079362 2.704523 -1.005801 -2.054214 -0.382708 -0.861291 0.000000 0.000000 0.000000 
449.592072 -105.432671 1065.504028 2.344218 -2.530038 1.908552 -0.038267 -1.884977 1.510110 -0.174481 0.358294 -0.336721 -0.109641 -0.374107 0.222655 -2.251834 7.689449 3.837236 0.000000 0.000000 0.000000 -3.130162 -1.153894 1.182849 0.704466 -1.639013 -6.079063 0.038142 0.370980 0.858848 0.000000 0.000000 0.000000 -0.189305 0.177436 -2.407658 0.700767 0.501372 1.294610 -0.096618 -5.735792 -3.533692 0.000000 0.000000 0.000000 -1.099459 -0.074145 0.321916 -1.224678 3.328019 1.129796 -0.987047 -3.846989 -1.023364 0.000000 0.000000 0.000000 -1.984930 -1.263376 -1.198147 -2.080436 2.713633 -0.996900 -2.054662 -0.381620 -0.861861 0.000000 0.000000 0.000000 
449.574310 -105.470276 1065.496948 2.350040 -2.527362 1.905687 -0.037452 -1.873497 1.512121 -0.173143 0.356488 -0.339021 -0.108371 -0.371697 0.224103 -2.251479 7.684998 3.838827 0.000000 0.000000 0.000000 -3.129361 -1.155770 1.192653 0.705383 -1.641687 -6.103587 0.039167 0.350608 0.872371 0.000000 0.000000 0.000000 -0.185500 0.183981 -2.413995 0.700742 0.508824 1.329032 -0.097533 -5.715355 -3.531423 0.000000 0.000000 0.000000 -1.099934 -0.076122 0.323471 -1.225781 3.323945 1.138523 -0.988152 -3.841969 -1.023152 0.000000 0.000000 0.000000 -1.988677 -1.271299 -1.189101 -2.082895 2.720212 -1.002711 -2.057312 -0.378852 -0.864028 0.000000 0.000000 0.000000 
449.547913 -105.520164 1065.494019 2.363932 -2.523414 1.901708 -0.037229 -1.861945 1.513633 -0.172365 0.355215 -0.340377 -0.107637 -0.369973 0.225614 -2.252524 7.683958 3.843182 0.000000 0.000000 0.000000 -3.126833 -1.155272 1.203165 0.705156 -1.641735 -6.126666 0.039942 0.329178 0.880801 0.000000 0.000000 0.000000 -0.181959 0.186631 -2.418441 0.700518 0.511848 1.351963 -0.097234 -5.698823 -3.517903 0.000000 0.000000 0.000000 -1.103489 -0.080119 0.326324 -1.230086 3.319953 1.149573 -0.992483 -3.832187 -1.023766 0.000000 0.000000 0.000000 -1.995694 -1.280497 -1.172580 -2.086743 2.723410 -1.018146 -2.061880 -0.373924 -0.867813 0.000000 0.000000 0.000000 
449.521515 -105.569061 1065.491943 2.380946 -2.518180 1.898461 -0.035794 -1.853162 1.516125 -0.170502 0.353213 -0.343163 -0.105816 -0.367689 0.227307 -2.254398 7.685310 3.848715 0.000000 0.000000 0.000000 -3.126494 -1.154728 1.213249 0.705222 -1.641922 -6.149566 0.040417 0.314315 0.885488 0.000000 0.000000 0.000000 -0.180925 0.183898 -2.426389 0.698666 0.509502 1.367968 -0.095568 -5.669956 -3.485252 0.000000 0.000000 0.000000 -1.107990 -0.083775 0.329031 -1.235182 3.312988 1.159329 -0.997727 -3.821465 -1.024675 0.000000 0.000000 0.000000 -2.003674 -1.291782 -1.156600 -2.091604 2.727119 -1.034073 -2.067458 -0.368717 -0.872173 0.000000 0.000000 0.000000 
449.506958 -105.612564 1065.487061 2.397946 -2.509799 1.897683 -0.033247 -1.854284 1.515338 -0.167956 0.353269 -0.342430 -0.103311 -0.367720 0.227079 -2.256753 7.693094 3.851524 0.000000 0.000000 0.000000 -3.124666 -1.154036 1.220986 0.706076 -1.641800 -6.171103 0.040465 0.312068 0.885815 0.000000 0.000000 0.000000 -0.178530 0.176415 -2.441023 0.694132 0.501524 1.377186 -0.091945 -5.616519 -3.422717 0.000000 0.000000 0.000000 -1.112352 -0.086146 0.331437 -1.239545 3.299096 1.163629 -1.002533 -3.811849 -1.025540 0.000000 0.000000 0.000000 -2.010722 -1.307643 -1.146869 -2.096980 2.734243 -1.044113 -2.073176 -0.364439 -0.876300 0.000000 0.000000 0.000000 
449.499298 -105.653839 1065.482056 2.416487 -2.498602 1.898513 -0.028822 -1.862490 1.513699 -0.163824 0.352920 -0.342160 -0.099260 -0.366607 0.227412 -2.260041 7.704913 3.854800 0.000000 0.000000 0.000000 -3.124789 -1.153366 1.226773 0.707447 -1.641818 -6.191525 0.040135 0.319438 0.881815 0.000000 0.000000 0.000000 -0.177408 0.162641 -2.461207 0.687162 0.486872 1.378493 -0.086572 -5.543153 -3.334169 0.000000 0.000000 0.000000 -1.117316 -0.088052 0.333957 -1.244058 3.279568 1.164085 -1.007745 -3.801736 -1.026527 0.000000 0.000000 0.000000 -2.018143 -1.327259 -1.140139 -2.103385 2.742957 -1.051930 -2.079757 -0.360313 -0.880793 0.000000 0.000000 0.000000 
449.486450 -105.689285 1065.473999 2.435625 -2.490023 1.900439 -0.025794 -1.867908 1.512428 -0.160961 0.352541 -0.341419 -0.096495 -0.366240 0.226901 -2.262480 7.715418 3.855831 0.000000 0.000000 0.000000 -3.122924 -1.154928 1.232843 0.709479 -1.643992 -6.213447 0.039755 0.329678 0.877694 0.000000 0.000000 0.000000 -0.176029 0.147726 -2.484901 0.680055 0.471203 1.382168 -0.080762 -5.465996 -3.240225 0.000000 0.000000 0.000000 -1.121914 -0.088770 0.334425 -1.248455 3.263034 1.164928 -1.012695 -3.793518 -1.027663 0.000000 0.000000 0.000000 -2.025320 -1.344473 -1.136369 -2.110082 2.751941 -1.057329 -2.086478 -0.356173 -0.885356 0.000000 0.000000 0.000000 
449.460266 -105.714165 1065.462036 2.454686 -2.488144 1.903452 -0.025635 -1.864524 1.512328 -0.160542 0.351333 -0.340210 -0.096401 -0.363314 0.225751 -2.262588 7.719364 3.852575 0.000000 0.000000 0.000000 -3.119267 -1.162533 1.240552 0.713097 -1.652326 -6.239851 0.039568 0.340845 0.877528 0.000000 0.000000 0.000000 -0.176380 0.132082 -2.514650 0.673766 0.456008 1.397464 -0.075239 -5.390079 -3.150853 0.000000 0.000000 0.000000 -1.125654 -0.088000 0.330853 -1.252762 3.256527 1.168692 -1.017080 -3.789851 -1.029193 0.000000 0.000000 0.000000 -2.032371 -1.353581 -1.136186 -2.117147 2.758330 -1.059724 -2.093399 -0.350718 -0.890443 0.000000 0.000000 0.000000 
449.423737 -105.729362 1065.447021 2.474310 -2.491416 1.907866 -0.027035 -1.853746 1.512738 -0.161256 0.348467 -0.337905 -0.097678 -0.359469 0.223460 -2.260950 7.719498 3.845131 0.000000 0.000000 0.000000 -3.115952 -1.174669 1.249127 0.718067 -1.665421 -6.269616 0.039426 0.355231 0.879101 0.000000 0.000000 0.000000 -0.179482 0.114257 -2.550506 0.667497 0.439692 1.419894 -0.069450 -5.309781 -3.057733 0.000000 0.000000 0.000000 -1.128883 -0.085635 0.323565 -1.257173 3.257041 1.174549 -1.021229 -3.789541 -1.031099 0.000000 0.000000 0.000000 -2.039323 -1.356718 -1.140182 -2.124805 2.763131 -1.058453 -2.100692 -0.344499 -0.895956 0.000000 0.000000 0.000000 
449.383240 -105.745705 1065.431030 2.492364 -2.495798 1.912251 -0.029737 -1.841919 1.514493 -0.163314 0.346018 -0.337276 -0.100048 -0.357306 0.222662 -2.258841 7.718943 3.836603 0.000000 0.000000 0.000000 -3.110522 -1.186151 1.257228 0.722350 -1.677616 -6.298926 0.039379 0.364338 0.880863 0.000000 0.000000 0.000000 -0.179945 0.100915 -2.583952 0.662602 0.427717 1.447212 -0.065082 -5.241576 -2.984182 0.000000 0.000000 0.000000 -1.131727 -0.083261 0.316941 -1.261065 3.258966 1.179373 -1.024866 -3.788876 -1.032710 0.000000 0.000000 0.000000 -2.045747 -1.360557 -1.143183 -2.131710 2.771328 -1.059062 -2.107333 -0.339250 -0.900840 0.000000 0.000000 0.000000 
449.342041 -105.770065 1065.420044 2.506861 -2.498759 1.915610 -0.031472 -1.833815 1.517788 -0.164690 0.344605 -0.337836 -0.101606 -0.354745 0.222792 -2.257596 7.717803 3.831887 0.000000 0.000000 0.000000 -3.108140 -1.195342 1.265395 0.724992 -1.687610 -6.326114 0.039410 0.363530 0.881032 0.000000 0.000000 0.000000 -0.183073 0.095213 -2.609731 0.660703 0.424593 1.482390 -0.063679 -5.201434 -2.952281 0.000000 0.000000 0.000000 -1.134803 -0.082089 0.313521 -1.264717 3.258471 1.182481 -1.028560 -3.782386 -1.033501 0.000000 0.000000 0.000000 -2.050924 -1.370512 -1.141287 -2.136458 2.788431 -1.066047 -2.112175 -0.336549 -0.904028 0.000000 0.000000 0.000000 
449.298004 -105.800537 1065.410034 2.519149 -2.501973 1.918712 -0.033129 -1.826515 1.521597 -0.166111 0.344581 -0.338065 -0.103054 -0.354393 0.222279 -2.256658 7.716177 3.828846 0.000000 0.000000 0.000000 -3.107376 -1.203044 1.274730 0.726512 -1.696190 -6.352571 0.039502 0.355414 0.880067 0.000000 0.000000 0.000000 -0.187993 0.095720 -2.629289 0.661011 0.428582 1.524981 -0.064677 -5.181325 -2.953163 0.000000 0.000000 0.000000 -1.137856 -0.081412 0.312129 -1.267986 3.257997 1.183647 -1.032033 -3.772522 -1.033696 0.000000 0.000000 0.000000 -2.055532 -1.383737 -1.136391 -2.140015 2.812011 -1.077660 -2.116074 -0.335579 -0.906198 0.000000 0.000000 0.000000 
449.253845 -105.826996 1065.401978 2.529527 -2.503717 1.920772 -0.034750 -1.821030 1.527635 -0.167562 0.342874 -0.339298 -0.104632 -0.352331 0.222776 -2.256075 7.715331 3.826764 0.000000 0.000000 0.000000 -3.105934 -1.207486 1.282492 0.726885 -1.701297 -6.377398 0.039813 0.339669 0.880980 0.000000 0.000000 0.000000 -0.189271 0.098999 -2.646175 0.661620 0.434443 1.564163 -0.065995 -5.165821 -2.958970 0.000000 0.000000 0.000000 -1.140118 -0.081833 0.311776 -1.270327 3.256867 1.184282 -1.034564 -3.764636 -1.033735 0.000000 0.000000 0.000000 -2.059143 -1.397932 -1.131382 -2.142738 2.834754 -1.087650 -2.119069 -0.333188 -0.908397 0.000000 0.000000 0.000000 
449.215424 -105.845284 1065.396973 2.537399 -2.501654 1.921999 -0.034616 -1.822156 1.535359 -0.167682 0.342929 -0.341111 -0.104619 -0.352069 0.224208 -2.257078 7.721357 3.825987 0.000000 0.000000 0.000000 -3.106583 -1.204929 1.287196 0.725567 -1.699313 -6.399305 0.040486 0.313937 0.885902 0.000000 0.000000 0.000000 -0.187661 0.104525 -2.659276 0.661345 0.441150 1.591176 -0.066512 -5.145470 -2.954142 0.000000 0.000000 0.000000 -1.140741 -0.083781 0.312282 -1.270718 3.252818 1.182661 -1.035122 -3.763021 -1.033759 0.000000 0.000000 0.000000 -2.061109 -1.412111 -1.128840 -2.144594 2.850697 -1.091575 -2.120908 -0.326022 -0.911596 0.000000 0.000000 0.000000 
449.177795 -105.856522 1065.394043 2.543045 -2.497649 1.921988 -0.032928 -1.825450 1.546255 -0.166388 0.342001 -0.344277 -0.103160 -0.351698 0.226375 -2.259338 7.730991 3.827433 0.000000 0.000000 0.000000 -3.110081 -1.196917 1.289256 0.722628 -1.691877 -6.419128 0.041519 0.276982 0.894298 0.000000 0.000000 0.000000 -0.185349 0.112411 -2.668375 0.660907 0.449577 1.610111 -0.066953 -5.126667 -2.948892 0.000000 0.000000 0.000000 -1.140214 -0.086214 0.313957 -1.269712 3.246644 1.179780 -1.034259 -3.765933 -1.033773 0.000000 0.000000 0.000000 -2.061886 -1.425990 -1.127202 -2.145690 2.862520 -1.091599 -2.121803 -0.315804 -0.915337 0.000000 0.000000 0.000000 
